<svg width="26" height="18" viewBox="0 0 26 18" fill="none" xmlns="http://www.w3.org/2000/svg">
<path d="M8.92188 0.25C8.11064 0.253226 7.33356 0.576917 6.75992 1.15055C6.18629 1.72418 5.8626 2.50127 5.85938 3.3125C5.85938 4.99425 7.24013 6.375 8.92188 6.375C10.6036 6.375 11.9844 4.99425 11.9844 3.3125C11.9844 1.63075 10.6036 0.25 8.92188 0.25ZM16.7969 0.25C15.9856 0.253226 15.2086 0.576917 14.6349 1.15055C14.0613 1.72418 13.7376 2.50127 13.7344 3.3125C13.7344 4.99425 15.1151 6.375 16.7969 6.375C18.4786 6.375 19.8594 4.99425 19.8594 3.3125C19.8594 1.63075 18.4786 0.25 16.7969 0.25ZM8.92188 2C9.65687 2 10.2344 2.5775 10.2344 3.3125C10.2344 4.0475 9.65687 4.625 8.92188 4.625C8.18687 4.625 7.60938 4.0475 7.60938 3.3125C7.60938 2.5775 8.18687 2 8.92188 2ZM16.7969 2C17.5319 2 18.1094 2.5775 18.1094 3.3125C18.1094 4.0475 17.5319 4.625 16.7969 4.625C16.0619 4.625 15.4844 4.0475 15.4844 3.3125C15.4844 2.5775 16.0619 2 16.7969 2ZM4.98438 5.5C3.05938 5.5 1.48438 7.075 1.48438 9C1.48438 9.97388 1.90175 10.8524 2.551 11.4885C1.95541 11.8904 1.46713 12.4319 1.12872 13.0657C0.790298 13.6995 0.612007 14.4065 0.609375 15.125H2.35938C2.35938 13.6655 3.52487 12.5 4.98438 12.5C6.44387 12.5 7.60938 13.6655 7.60938 15.125H9.35938C9.35674 14.4065 9.17845 13.6995 8.84003 13.0657C8.50162 12.4319 8.01334 11.8904 7.41775 11.4885C8.067 10.8524 8.48438 9.97475 8.48438 9C8.48438 7.075 6.90938 5.5 4.98438 5.5ZM9.35938 15.125C8.8125 15.8565 8.48438 16.7761 8.48438 17.75H10.2344C10.2344 16.2905 11.3999 15.125 12.8594 15.125C14.3189 15.125 15.4844 16.2905 15.4844 17.75H17.2344C17.2329 16.8036 16.926 15.883 16.3594 15.125C16.0619 14.7286 15.7031 14.39 15.2928 14.1135C15.942 13.4774 16.3594 12.5997 16.3594 11.625C16.3594 9.7 14.7844 8.125 12.8594 8.125C10.9344 8.125 9.35938 9.7 9.35938 11.625C9.35938 12.5989 9.77675 13.4774 10.426 14.1135C10.0164 14.3886 9.65585 14.7306 9.35938 15.125ZM16.3594 15.125H18.1094C18.1094 13.6655 19.2749 12.5 20.7344 12.5C22.1939 12.5 23.3594 13.6655 23.3594 15.125H25.1094C25.1067 14.4065 24.9285 13.6995 24.59 13.0657C24.2516 12.4319 23.7633 11.8904 23.1677 11.4885C23.817 10.8524 24.2344 9.97475 24.2344 9C24.2344 7.075 22.6594 5.5 20.7344 5.5C18.8094 5.5 17.2344 7.075 17.2344 9C17.2344 9.97388 17.6518 10.8524 18.301 11.4885C17.7054 11.8904 17.2171 12.4319 16.8787 13.0657C16.5403 13.6995 16.362 14.4065 16.3594 15.125ZM4.98438 7.25C5.96175 7.25 6.73438 8.02262 6.73438 9C6.73438 9.97738 5.96175 10.75 4.98438 10.75C4.007 10.75 3.23438 9.97738 3.23438 9C3.23438 8.02262 4.007 7.25 4.98438 7.25ZM20.7344 7.25C21.7118 7.25 22.4844 8.02262 22.4844 9C22.4844 9.97738 21.7118 10.75 20.7344 10.75C19.757 10.75 18.9844 9.97738 18.9844 9C18.9844 8.02262 19.757 7.25 20.7344 7.25ZM12.8594 9.875C13.8368 9.875 14.6094 10.6476 14.6094 11.625C14.6094 12.6024 13.8368 13.375 12.8594 13.375C11.882 13.375 11.1094 12.6024 11.1094 11.625C11.1094 10.6476 11.882 9.875 12.8594 9.875Z" fill="#545454"/>
</svg>
