<svg width="21" height="22" viewBox="0 0 21 22" fill="none" xmlns="http://www.w3.org/2000/svg">
<path d="M20.4766 17.3304H17.4766V14.3304H15.9766V17.3304H12.9766V18.8304H15.9766V21.8304H17.4766V18.8304H20.4766V17.3304Z" fill="#151F6D"/>
<path d="M15.9766 3.08044H13.7266V2.33044C13.7254 1.93298 13.567 1.55214 13.2859 1.2711C13.0049 0.990048 12.624 0.831631 12.2266 0.830444H6.22656C5.8291 0.831631 5.44826 0.990048 5.16721 1.2711C4.88617 1.55214 4.72775 1.93298 4.72656 2.33044V3.08044H2.47656C2.0791 3.08163 1.69826 3.24005 1.41721 3.5211C1.13617 3.80214 0.97775 4.18298 0.976562 4.58044V20.3304C0.97775 20.7279 1.13617 21.1087 1.41721 21.3898C1.69826 21.6708 2.0791 21.8293 2.47656 21.8304H9.97656V20.3304H2.47656V4.58044H4.72656V6.83044H13.7266V4.58044H15.9766V11.3304H17.4766V4.58044C17.4754 4.18298 17.317 3.80214 17.0359 3.5211C16.7549 3.24005 16.374 3.08163 15.9766 3.08044ZM12.2266 5.33044H6.22656V2.33044H12.2266V5.33044Z" fill="#151F6D"/>
</svg>
