<svg width="20" height="23" viewBox="0 0 20 23" fill="none" xmlns="http://www.w3.org/2000/svg">
<path d="M12.8819 2.16361C12.9715 2.13646 13.0547 2.09162 13.1266 2.03175C13.1986 1.97187 13.2578 1.89818 13.3007 1.81502C13.3437 1.73187 13.3696 1.64094 13.3768 1.54762C13.384 1.4543 13.3724 1.36048 13.3427 1.27171C13.313 1.18294 13.2658 1.10103 13.2039 1.03082C13.1421 0.960603 13.0667 0.903515 12.9824 0.86293C12.898 0.822345 12.8064 0.799086 12.7129 0.794531C12.6194 0.789975 12.526 0.804215 12.4381 0.836407C11.1249 1.27321 10.3073 2.35121 9.82568 3.50621C9.76102 3.66233 9.70172 3.82062 9.64788 3.98081C9.38562 3.484 9.05006 3.02951 8.65248 2.63261C8.11437 2.09334 7.47163 1.66984 6.7638 1.38815C6.05596 1.10646 5.29799 0.972532 4.53648 0.994607C3.72448 1.01701 3.07628 1.66661 3.05388 2.47721C3.03181 3.23871 3.16573 3.99669 3.44742 4.70452C3.72911 5.41236 4.15261 6.05509 4.69188 6.59321L4.73528 6.63521C3.55928 6.88995 2.49653 7.51652 1.7043 8.42221C0.912082 9.32789 0.432483 10.4646 0.336483 11.664L0.328083 11.7676C0.143257 14.0737 0.634632 16.3836 1.74208 18.4148L2.24608 19.336C2.26008 19.3598 2.27408 19.3836 2.29088 19.406L3.69088 21.3688C4.00819 21.8132 4.41849 22.1831 4.89325 22.4528C5.36802 22.7225 5.89584 22.8856 6.44001 22.9306C6.98417 22.9756 7.53162 22.9016 8.04427 22.7136C8.55691 22.5256 9.02244 22.2282 9.40848 21.842C9.46777 21.7827 9.53815 21.7357 9.61562 21.7036C9.69309 21.6715 9.77613 21.6549 9.85998 21.6549C9.94384 21.6549 10.0269 21.6715 10.1043 21.7036C10.1818 21.7357 10.2522 21.7827 10.3115 21.842C10.6975 22.2282 11.1631 22.5256 11.6757 22.7136C12.1883 22.9016 12.7358 22.9756 13.28 22.9306C13.8241 22.8856 14.352 22.7225 14.8267 22.4528C15.3015 22.1831 15.7118 21.8132 16.0291 21.3688L17.4291 19.4074C17.4454 19.3845 17.4604 19.3607 17.4739 19.336L17.9765 18.4148C19.0839 16.3836 19.5753 14.0737 19.3905 11.7676L19.3835 11.664C19.3215 10.8909 19.0997 10.1391 18.7319 9.45624C18.3642 8.77337 17.8586 8.17434 17.2473 7.69709C16.6359 7.21985 15.9321 6.8748 15.1804 6.68381C14.4287 6.49283 13.6455 6.46007 12.8805 6.58761L10.5607 6.97401C10.5747 6.02061 10.7427 4.94821 11.1193 4.04381C11.5113 3.09881 12.0937 2.42681 12.8805 2.16361H12.8819ZM5.53188 10.5636C5.31695 10.6316 5.1176 10.7414 4.94531 10.8868C4.77303 11.0321 4.63123 11.2102 4.52808 11.4106C4.26908 11.8978 4.09128 12.7014 4.25508 14.0132C4.27346 14.1951 4.21997 14.3769 4.10605 14.5198C3.99213 14.6628 3.82682 14.7555 3.64545 14.7782C3.46408 14.8008 3.28104 14.7517 3.13544 14.6412C2.98984 14.5307 2.89324 14.3676 2.86628 14.1868C2.68008 12.6972 2.85228 11.5758 3.29328 10.7512C3.74128 9.91121 4.42308 9.45761 5.08948 9.23501C5.17672 9.20596 5.26882 9.19438 5.36054 9.20092C5.45225 9.20747 5.54178 9.23202 5.624 9.27316C5.70623 9.31431 5.77954 9.37125 5.83977 9.44073C5.89999 9.51021 5.94593 9.59087 5.97498 9.67811C6.00403 9.76534 6.01561 9.85745 6.00907 9.94916C6.00252 10.0409 5.97797 10.1304 5.93683 10.2126C5.89568 10.2949 5.83874 10.3682 5.76926 10.4284C5.69978 10.4886 5.61912 10.5346 5.53188 10.5636Z" fill="#545454"/>
</svg>
