<svg width="21" height="22" viewBox="0 0 21 22" fill="none" xmlns="http://www.w3.org/2000/svg">
<path d="M1.5612 21.1696C1.23065 21.1696 0.953369 21.0576 0.729369 20.8336C0.505369 20.6096 0.393758 20.3327 0.394535 20.0029V15.3362C0.394535 15.0057 0.506535 14.7284 0.730535 14.5044C0.954535 14.2804 1.23142 14.1688 1.5612 14.1696C1.89176 14.1696 2.16903 14.2816 2.39304 14.5056C2.61703 14.7296 2.72865 15.0064 2.72787 15.3362V20.0029C2.72787 20.3334 2.61587 20.6107 2.39187 20.8347C2.16787 21.0587 1.89098 21.1703 1.5612 21.1696ZM5.0612 18.8362C4.73065 18.8362 4.45337 18.7242 4.22937 18.5002C4.00537 18.2762 3.89376 17.9993 3.89454 17.6696C3.89454 17.339 4.00654 17.0617 4.23054 16.8377C4.45454 16.6137 4.73142 16.5021 5.0612 16.5029H9.72787C10.0584 16.5029 10.3357 16.3909 10.5597 16.1669C10.7837 15.9429 10.8953 15.666 10.8945 15.3362V11.8362H5.0612C4.67231 11.8362 4.3612 11.6853 4.12787 11.3836C3.89454 11.0818 3.8362 10.7368 3.95287 10.3487L6.75287 1.01539C6.83065 0.762611 6.96676 0.558445 7.1612 0.402889C7.35565 0.247333 7.58898 0.169556 7.8612 0.169556H16.2612C16.5334 0.169556 16.7668 0.247333 16.9612 0.402889C17.1556 0.558445 17.2918 0.762611 17.3695 1.01539L20.1695 10.3487C20.2862 10.7376 20.2279 11.0829 19.9945 11.3847C19.7612 11.6865 19.4501 11.837 19.0612 11.8362H13.2279V15.3362C13.2279 16.3084 12.8876 17.1348 12.207 17.8154C11.5265 18.4959 10.7001 18.8362 9.72787 18.8362H5.0612Z" fill="#545454"/>
</svg>
