<svg width="29" height="26" viewBox="0 0 29 26" fill="none" xmlns="http://www.w3.org/2000/svg">
<path fill-rule="evenodd" clip-rule="evenodd" d="M14.8576 0.750001C15.1359 0.749698 15.4071 0.837855 15.632 1.00174C15.8569 1.16563 16.0239 1.39676 16.1089 1.66175L21.8594 19.6325L24.1099 12.601C24.1944 12.336 24.3611 12.1047 24.5856 11.9405C24.8102 11.7763 25.0812 11.6877 25.3594 11.6875H27.5469C27.895 11.6875 28.2288 11.8258 28.475 12.0719C28.7211 12.3181 28.8594 12.6519 28.8594 13C28.8594 13.3481 28.7211 13.6819 28.475 13.9281C28.2288 14.1742 27.895 14.3125 27.5469 14.3125H26.3166L23.1089 24.3382C23.0238 24.6028 22.857 24.8335 22.6325 24.9971C22.4079 25.1608 22.1372 25.249 21.8594 25.249C21.5815 25.249 21.3108 25.1608 21.0863 24.9971C20.8617 24.8335 20.6949 24.6028 20.6099 24.3382L14.8681 6.3955L10.8606 19.083C10.7779 19.3444 10.6155 19.5734 10.396 19.7378C10.1765 19.9022 9.91107 19.9937 9.63693 19.9995C9.36279 20.0053 9.09372 19.925 8.8675 19.7701C8.64128 19.6151 8.46927 19.3932 8.37563 19.1355L6.16362 13.0525L6.04112 13.4165C5.95411 13.6777 5.78714 13.905 5.56384 14.0661C5.34054 14.2272 5.07223 14.314 4.79688 14.3143H2.17188C1.82378 14.3143 1.48994 14.176 1.2438 13.9298C0.997656 13.6837 0.859375 13.3498 0.859375 13.0018C0.859375 12.6537 0.997656 12.3198 1.2438 12.0737C1.48994 11.8275 1.82378 11.6893 2.17188 11.6893H3.85188L4.86338 8.6495C4.94912 8.39059 5.1134 8.16482 5.33337 8.00358C5.55334 7.84234 5.81808 7.75362 6.0908 7.74977C6.36351 7.74593 6.63065 7.82713 6.85509 7.9821C7.07952 8.13707 7.2501 8.35811 7.34312 8.6145L9.52187 14.6083L13.6081 1.66875C13.6918 1.40273 13.858 1.17028 14.0827 1.00508C14.3073 0.839887 14.5788 0.750542 14.8576 0.750001Z" fill="#545454"/>
</svg>
