<svg width="27" height="23" viewBox="0 0 27 23" fill="none" xmlns="http://www.w3.org/2000/svg">
<path d="M26.1094 20.75H24.3594V10.6383C24.3594 10.3961 24.3092 10.1565 24.2118 9.9347C24.1145 9.71292 23.9722 9.51375 23.7939 9.34981L15.0439 1.09419C15.0396 1.09046 15.0356 1.08644 15.0319 1.08216C14.7097 0.789179 14.2899 0.626831 13.8545 0.626831C13.419 0.626831 12.9992 0.789179 12.677 1.08216L12.665 1.09419L3.92484 9.34981C3.74656 9.51375 3.60425 9.71292 3.50691 9.9347C3.40958 10.1565 3.35934 10.3961 3.35938 10.6383V20.75H1.60938C1.37731 20.75 1.15475 20.8422 0.990657 21.0063C0.826562 21.1703 0.734375 21.3929 0.734375 21.625C0.734375 21.857 0.826562 22.0796 0.990657 22.2437C1.15475 22.4078 1.37731 22.5 1.60938 22.5H26.1094C26.3414 22.5 26.564 22.4078 26.7281 22.2437C26.8922 22.0796 26.9844 21.857 26.9844 21.625C26.9844 21.3929 26.8922 21.1703 26.7281 21.0063C26.564 20.8422 26.3414 20.75 26.1094 20.75ZM5.10938 10.6383L5.12141 10.6273L13.8594 2.37497L22.5984 10.6251L22.6105 10.6361V20.75H17.3594V15.5C17.3594 15.0358 17.175 14.5907 16.8468 14.2625C16.5186 13.9343 16.0735 13.75 15.6094 13.75H12.1094C11.6452 13.75 11.2001 13.9343 10.8719 14.2625C10.5437 14.5907 10.3594 15.0358 10.3594 15.5V20.75H5.10938V10.6383ZM15.6094 20.75H12.1094V15.5H15.6094V20.75Z" fill="#545454"/>
</svg>
