<svg width="16" height="16" viewBox="0 0 16 16" fill="none" xmlns="http://www.w3.org/2000/svg">
<path d="M14.125 0.224121C14.6562 0.224121 15.125 0.692871 15.125 1.22412V5.72412C15.125 6.28662 14.6562 6.72412 14.125 6.72412H10.125C9.5625 6.72412 9.125 6.28662 9.125 5.72412C9.125 5.19287 9.5625 4.72412 10.125 4.72412H11.5C10.625 3.50537 9.1875 2.72412 7.625 2.72412C5.53125 2.72412 3.6875 4.06787 3.0625 6.03662C2.90625 6.56787 2.34375 6.84912 1.8125 6.69287C1.28125 6.53662 1 5.97412 1.15625 5.44287C2.0625 2.63037 4.65625 0.724121 7.625 0.724121C9.84375 0.724121 11.875 1.81787 13.125 3.56787V1.22412C13.125 0.692871 13.5625 0.224121 14.125 0.224121ZM13.4062 8.78662C13.9375 8.94287 14.2188 9.50537 14.0312 10.0366C13.125 12.8491 10.5312 14.7241 7.59375 14.7241C5.375 14.7241 3.34375 13.6616 2.125 11.9116V14.2241C2.125 14.7866 1.65625 15.2241 1.125 15.2241C0.5625 15.2241 0.125 14.7866 0.125 14.2241V9.72412C0.125 9.19287 0.5625 8.72412 1.125 8.72412H5.125C5.65625 8.72412 6.125 9.19287 6.125 9.72412C6.125 10.2866 5.65625 10.7241 5.125 10.7241H3.71875C4.59375 11.9741 6.03125 12.7241 7.625 12.7241C9.6875 12.7241 11.5312 11.4116 12.1562 9.44287C12.3125 8.91162 12.875 8.63037 13.4062 8.78662Z" fill="#767579"/>
</svg>
