<svg width="19" height="19" viewBox="0 0 19 19" fill="none" xmlns="http://www.w3.org/2000/svg">
<path d="M17.5851 13.6V16.1C17.5861 16.3321 17.5386 16.5618 17.4456 16.7745C17.3526 16.9871 17.2162 17.178 17.0452 17.3349C16.8742 17.4918 16.6723 17.6112 16.4524 17.6856C16.2326 17.76 15.9996 17.7876 15.7685 17.7667C13.2042 17.488 10.741 16.6118 8.57682 15.2083C6.56334 13.9289 4.85626 12.2218 3.57682 10.2083C2.16846 8.03435 1.29202 5.55917 1.01848 2.98334C0.997658 2.7529 1.02505 2.52064 1.0989 2.30136C1.17275 2.08208 1.29146 1.88058 1.44745 1.70969C1.60345 1.5388 1.79332 1.40227 2.00498 1.30878C2.21663 1.21529 2.44543 1.16689 2.67682 1.16668H5.17682C5.58124 1.1627 5.97331 1.30591 6.27995 1.56962C6.58659 1.83333 6.78688 2.19955 6.84348 2.60001C6.949 3.40006 7.14469 4.18562 7.42682 4.94168C7.53894 5.23995 7.5632 5.5641 7.49674 5.87574C7.43028 6.18738 7.27587 6.47344 7.05182 6.70001L5.99348 7.75834C7.17978 9.84463 8.90719 11.572 10.9935 12.7583L12.0518 11.7C12.2784 11.476 12.5644 11.3216 12.8761 11.2551C13.1877 11.1886 13.5119 11.2129 13.8101 11.325C14.5662 11.6071 15.3518 11.8028 16.1518 11.9083C16.5566 11.9655 16.9263 12.1693 17.1906 12.4813C17.4549 12.7932 17.5953 13.1913 17.5851 13.6Z" stroke="#767579" stroke-width="2" stroke-linecap="round" stroke-linejoin="round"/>
</svg>
