<svg width="24" height="25" viewBox="0 0 24 25" fill="none" xmlns="http://www.w3.org/2000/svg">
<path d="M22.497 10.9196L19.6445 3.91956H21.3945V2.16956H12.6445V0.419556H10.8945V2.16956H2.14453V3.91956H3.89453L1.05953 10.9196H0.394531V12.6696H0.657031C0.930031 13.5411 1.48478 14.2971 2.23203 14.8221C2.96992 15.3571 3.85806 15.6453 4.76953 15.6453C5.681 15.6453 6.56915 15.3571 7.30703 14.8221C8.05491 14.2938 8.6132 13.5392 8.89953 12.6696H9.14453V10.9196H8.35703L5.43453 3.91956H10.8945V17.9196H7.39453L6.71203 18.2346L3.21203 22.6271L3.89453 24.0446H19.6445L20.327 22.6271L16.827 18.2346L16.1445 17.9196H12.6445V3.91956H18.122L15.1995 10.9196H14.3945V12.6696H14.657C14.9432 13.5366 15.4956 14.2912 16.2355 14.8262C16.9755 15.3611 17.8652 15.6491 18.7783 15.6491C19.6913 15.6491 20.5811 15.3611 21.321 14.8262C22.0609 14.2912 22.6133 13.5366 22.8995 12.6696H23.1445V10.9196H22.497ZM6.02953 13.5621C5.6436 13.7756 5.2106 13.8899 4.76953 13.8946C4.33368 13.8923 3.90577 13.7778 3.52703 13.5621C3.14082 13.3504 2.81544 13.043 2.58203 12.6696H6.95703C6.72559 13.0385 6.4071 13.345 6.02953 13.5621ZM6.46703 10.9196H2.96703L4.71703 6.71956L6.46703 10.9196ZM15.7245 19.6696L17.8945 22.2946H5.64453L7.81453 19.6696H15.7245ZM18.8395 6.75456L20.5895 10.9546H17.0895L18.8395 6.75456ZM20.0295 13.5971C19.6469 13.8188 19.2117 13.9336 18.7695 13.9296C18.3326 13.9358 17.9025 13.8207 17.527 13.5971C17.1402 13.3707 16.8156 13.052 16.582 12.6696H20.957C20.7401 13.0589 20.4189 13.3801 20.0295 13.5971Z" fill="#545454"/>
</svg>
