<svg width="179" height="33" viewBox="0 0 179 33" fill="none" xmlns="http://www.w3.org/2000/svg">
<path d="M10.2307 32.5162C4.07138 32.5162 0 29.006 0 23.6374H3.44502C3.44502 27.1477 6.26367 29.419 10.2307 29.419C14.824 29.419 17.0163 27.5606 17.0163 24.5666C17.0163 22.3985 15.9723 20.8499 10.1263 19.8175C4.17577 18.7851 0.835158 16.9267 0.835158 12.384C0.835158 7.8414 4.48896 4.95062 10.1263 4.95062C15.9723 4.95062 19.6262 8.04788 19.6262 13.21H16.2855C16.2855 10.1127 14.1976 8.04788 10.1263 8.04788C5.95048 8.04788 4.07138 9.803 4.07138 12.2808C4.07138 14.5521 5.32412 15.6878 10.7526 16.7202C16.5987 17.8559 20.2525 19.5077 20.2525 24.5666C20.3569 29.7287 16.2855 32.5162 10.2307 32.5162Z" fill="#151F6D"/>
<path d="M43.4315 31.9998H40.2997V28.7993C38.9426 30.8642 36.3327 32.4128 33.4097 32.4128C27.668 32.4128 23.4922 27.7669 23.4922 22.0886C23.4922 16.4103 27.7724 11.7644 33.4097 11.7644C36.3327 11.7644 38.8382 13.4163 40.2997 15.3779V12.2806H43.4315V31.9998ZM33.3053 14.9649C29.5471 14.9649 26.624 18.2687 26.624 22.2951C26.624 26.2183 29.5471 29.522 33.3053 29.522C36.9591 29.522 40.0909 26.3215 40.0909 22.2951C40.0909 18.2687 37.0635 14.9649 33.3053 14.9649Z" fill="#151F6D"/>
<path d="M65.5597 31.9996H62.3234V20.1268C62.3234 17.1327 60.6531 14.8614 57.4169 14.8614C54.3895 14.8614 52.1972 17.0295 52.1972 20.0235V31.9996H48.9609V12.3836H52.0928V14.5517C53.4499 12.8998 55.5378 11.9706 57.8345 11.9706C62.741 11.9706 65.4553 15.3776 65.4553 20.3332V31.9996H65.5597Z" fill="#151F6D"/>
<path d="M89.6737 31.9997H86.5419V28.7992C85.1847 30.864 82.5749 32.4127 79.6518 32.4127C73.9102 32.4127 69.7344 27.7668 69.7344 22.1917C69.7344 16.5134 74.0145 11.7643 79.6518 11.7643C82.4705 11.7643 84.976 13.3129 86.4375 15.2745V3.60815H89.6737V31.9997ZM79.6518 14.9648C75.8936 14.9648 72.9706 18.2685 72.9706 22.295C72.9706 26.2182 75.8936 29.5219 79.6518 29.5219C83.3056 29.5219 86.4375 26.3214 86.4375 22.295C86.4375 18.2685 83.3056 14.9648 79.6518 14.9648Z" fill="#151F6D"/>
<path d="M112.326 27.1475L116.607 12.3839H120.052L114.101 31.9999H110.656L106.376 17.0298L102.2 31.9999H98.7552L92.8047 12.3839H96.2497L100.53 27.1475L104.706 12.3839H108.151L112.326 27.1475Z" fill="#151F6D"/>
<path d="M148.343 32.5158C142.81 32.5158 138.426 27.9732 138.426 22.2948C138.426 16.6165 142.915 11.9706 148.343 11.9706C152.728 11.9706 156.277 14.5517 157.634 18.5781H154.085C152.937 16.41 150.953 15.0679 148.343 15.0679C144.689 15.0679 141.662 18.3716 141.662 22.2948C141.662 26.218 144.689 29.5218 148.343 29.5218C150.953 29.5218 153.041 28.1796 154.085 26.0116H157.634C156.277 29.9348 152.728 32.5158 148.343 32.5158Z" fill="#151F6D"/>
<path d="M178.2 31.9997H174.964V20.1269C174.964 17.0296 173.189 14.9648 170.058 14.9648C167.03 14.9648 164.838 17.1329 164.838 20.0236V31.9997H161.602V3.60815H164.838V14.3453C166.195 12.7967 168.178 11.8675 170.475 11.8675C175.382 11.8675 178.096 15.2745 178.096 20.2301V31.9997H178.2Z" fill="#151F6D"/>
<ellipse cx="2.89933" cy="2.86733" rx="2.89933" ry="2.86733" transform="matrix(-1 0 0 1 133.383 0.931946)" fill="#FF9E1B"/>
<path d="M131.609 12.4036L141.709 2.58606L143.522 4.4642L134.544 13.428V31.8679H131.609V12.4036Z" fill="#86C8BC"/>
<path d="M129.195 12.4036L119.096 2.58606L117.283 4.4642L126.26 13.428V31.8679H129.195V12.4036Z" fill="#FF9E1B"/>
</svg>
