<svg width="285" height="82" viewBox="0 0 285 82" fill="none" xmlns="http://www.w3.org/2000/svg">
<path d="M16.7626 51.4551C6.95306 51.4551 0.46875 45.7671 0.46875 37.0679H5.95547C5.95547 42.7558 10.4446 46.4363 16.7626 46.4363C24.0783 46.4363 27.5698 43.425 27.5698 38.5735C27.5698 35.0604 25.9072 32.551 16.5964 30.878C7.11931 29.2051 1.79887 26.1938 1.79887 18.8329C1.79887 11.472 7.6181 6.78778 16.5964 6.78778C25.9072 6.78778 31.7264 11.8066 31.7264 20.1712H26.406C26.406 15.1524 23.0807 11.8066 16.5964 11.8066C9.9458 11.8066 6.95304 14.6506 6.95304 18.6656C6.95304 22.3461 8.94823 24.1863 17.594 25.8592C26.9048 27.6994 32.724 30.3761 32.724 38.5735C32.8902 46.9382 26.406 51.4551 16.7626 51.4551Z" fill="#151F6D"/>
<path d="M69.6354 50.6183H64.6474V45.4322C62.486 48.7781 58.3294 51.2875 53.674 51.2875C44.5295 51.2875 37.8789 43.7593 37.8789 34.5581C37.8789 25.357 44.6957 17.8288 53.674 17.8288C58.3294 17.8288 62.3197 20.5055 64.6474 23.6841V18.6653H69.6354V50.6183ZM53.5077 23.0149C47.5222 23.0149 42.8668 28.3683 42.8668 34.8927C42.8668 41.2499 47.5222 46.6033 53.5077 46.6033C59.327 46.6033 64.3149 41.4172 64.3149 34.8927C64.3149 28.3683 59.4932 23.0149 53.5077 23.0149Z" fill="#151F6D"/>
<path d="M104.881 50.6179H99.7271V31.3791C99.7271 26.5276 97.0669 22.8472 91.9127 22.8472C87.0911 22.8472 83.5995 26.3603 83.5995 31.2118V50.6179H78.4453V18.8321H83.4332V22.3453C85.5947 19.6686 88.92 18.163 92.5778 18.163C100.392 18.163 104.715 23.6836 104.715 31.7137V50.6179H104.881Z" fill="#151F6D"/>
<path d="M143.288 50.6181H138.3V45.432C136.138 48.7779 131.982 51.2873 127.326 51.2873C118.182 51.2873 111.531 43.7591 111.531 34.7252C111.531 25.5241 118.348 17.8286 127.326 17.8286C131.815 17.8286 135.806 20.338 138.134 23.5166V4.61243H143.288V50.6181ZM127.326 23.0147C121.341 23.0147 116.685 28.3681 116.685 34.8925C116.685 41.2497 121.341 46.6031 127.326 46.6031C133.146 46.6031 138.134 41.417 138.134 34.8925C138.134 28.3681 133.146 23.0147 127.326 23.0147Z" fill="#151F6D"/>
<path d="M179.369 42.7556L186.186 18.8326H191.672L182.195 50.6184H176.709L169.892 26.3608L163.241 50.6184H157.754L148.277 18.8326H153.764L160.581 42.7556L167.231 18.8326H172.718L179.369 42.7556Z" fill="#151F6D"/>
<path d="M236.729 51.4543C227.917 51.4543 220.934 44.0934 220.934 34.8923C220.934 25.6912 228.083 18.163 236.729 18.163C243.712 18.163 249.365 22.3453 251.526 28.8697H245.873C244.044 25.3566 240.885 23.1818 236.729 23.1818C230.909 23.1818 226.088 28.5352 226.088 34.8923C226.088 41.2494 230.909 46.6028 236.729 46.6028C240.885 46.6028 244.211 44.428 245.873 40.9149H251.526C249.365 47.272 243.712 51.4543 236.729 51.4543Z" fill="#151F6D"/>
<path d="M284.284 50.6181H279.129V31.3794C279.129 26.3606 276.303 23.0147 271.315 23.0147C266.493 23.0147 263.002 26.5279 263.002 31.2121V50.6181H257.848V4.61243H263.002V22.0109C265.163 19.5015 268.322 17.9959 271.98 17.9959C279.795 17.9959 284.117 23.5166 284.117 31.5466V50.6181H284.284Z" fill="#151F6D"/>
<ellipse cx="4.61763" cy="4.64622" rx="4.61763" ry="4.64622" transform="matrix(-1 0 0 1 212.906 0.275879)" fill="#FF9E1B"/>
<path d="M210.078 18.8645L226.164 2.95618L229.051 5.99951L214.753 20.5245V50.4045H210.078V18.8645Z" fill="#86C8BC"/>
<path d="M206.23 18.8645L190.145 2.95618L187.258 5.99951L201.556 20.5245V50.4045H206.23V18.8645Z" fill="#FF9E1B"/>
<path d="M69.1255 75.6017V77.184H62.9791V75.6017H69.1255ZM63.5437 65.6069V77.184H61.5479V65.6069H63.5437ZM68.3224 70.4413V71.9998H62.9791V70.4413H68.3224ZM69.0857 65.6069V67.1972H62.9791V65.6069H69.0857ZM87.5929 65.6069V77.184H85.5971L80.4049 68.8908V77.184H78.4091V65.6069H80.4049L85.613 73.916V65.6069H87.5929ZM102.148 65.6069V77.184H100.168V65.6069H102.148ZM105.782 65.6069V67.1972H96.5665V65.6069H105.782ZM122.54 75.6017V77.184H116.394V75.6017H122.54ZM116.958 65.6069V77.184H114.962V65.6069H116.958ZM121.737 70.4413V71.9998H116.394V70.4413H121.737ZM122.5 65.6069V67.1972H116.394V65.6069H122.5ZM131.824 65.6069H135.919C136.798 65.6069 137.549 65.7394 138.169 66.0045C138.789 66.2695 139.263 66.6618 139.592 67.1813C139.926 67.6954 140.093 68.3316 140.093 69.0896C140.093 69.6674 139.987 70.1763 139.775 70.6162C139.563 71.0562 139.263 71.4273 138.876 71.7294C138.489 72.0263 138.028 72.2569 137.493 72.4212L136.889 72.7154H133.207L133.191 71.1331H135.95C136.427 71.1331 136.825 71.0483 137.143 70.8786C137.461 70.709 137.7 70.4784 137.859 70.1869C138.023 69.89 138.105 69.5561 138.105 69.185C138.105 68.7821 138.026 68.4323 137.867 68.1354C137.713 67.8333 137.474 67.6027 137.151 67.4437C136.828 67.2793 136.417 67.1972 135.919 67.1972H133.819V77.184H131.824V65.6069ZM138.431 77.184L135.712 71.9839L137.803 71.9759L140.562 77.0807V77.184H138.431ZM154.131 72.8665H151.118V71.2841H154.131C154.656 71.2841 155.08 71.1993 155.404 71.0297C155.727 70.8601 155.963 70.6268 156.111 70.33C156.265 70.0278 156.342 69.6833 156.342 69.2963C156.342 68.9305 156.265 68.5886 156.111 68.2706C155.963 67.9472 155.727 67.6875 155.404 67.4914C155.08 67.2952 154.656 67.1972 154.131 67.1972H151.73V77.184H149.734V65.6069H154.131C155.027 65.6069 155.788 65.7659 156.414 66.084C157.044 66.3967 157.524 66.8314 157.853 67.388C158.181 67.9393 158.346 68.5701 158.346 69.2804C158.346 70.0278 158.181 70.6692 157.853 71.2046C157.524 71.74 157.044 72.1508 156.414 72.4371C155.788 72.7233 155.027 72.8665 154.131 72.8665ZM167.788 65.6069H171.883C172.763 65.6069 173.513 65.7394 174.134 66.0045C174.754 66.2695 175.228 66.6618 175.557 67.1813C175.891 67.6954 176.058 68.3316 176.058 69.0896C176.058 69.6674 175.952 70.1763 175.74 70.6162C175.528 71.0562 175.228 71.4273 174.841 71.7294C174.454 72.0263 173.993 72.2569 173.458 72.4212L172.853 72.7154H169.172L169.156 71.1331H171.915C172.392 71.1331 172.79 71.0483 173.108 70.8786C173.426 70.709 173.664 70.4784 173.823 70.1869C173.988 69.89 174.07 69.5561 174.07 69.185C174.07 68.7821 173.99 68.4323 173.831 68.1354C173.678 67.8333 173.439 67.6027 173.116 67.4437C172.792 67.2793 172.382 67.1972 171.883 67.1972H169.784V77.184H167.788V65.6069ZM174.396 77.184L171.677 71.9839L173.768 71.9759L176.527 77.0807V77.184H174.396ZM187.83 65.6069V77.184H185.834V65.6069H187.83ZM204.055 74.2023C204.055 73.9637 204.018 73.7517 203.944 73.5662C203.875 73.3806 203.75 73.211 203.57 73.0573C203.39 72.9036 203.136 72.7551 202.807 72.612C202.484 72.4636 202.07 72.3125 201.567 72.1588C201.015 71.9892 200.506 71.801 200.04 71.5942C199.579 71.3822 199.176 71.1384 198.831 70.8627C198.487 70.5818 198.219 70.2611 198.028 69.9006C197.837 69.5349 197.742 69.1134 197.742 68.6364C197.742 68.1646 197.84 67.7352 198.036 67.3482C198.238 66.9613 198.521 66.6273 198.887 66.3464C199.258 66.0601 199.695 65.8401 200.199 65.6864C200.702 65.5274 201.259 65.4479 201.869 65.4479C202.727 65.4479 203.467 65.6069 204.087 65.925C204.713 66.243 205.192 66.6697 205.526 67.2051C205.866 67.7405 206.035 68.3316 206.035 68.9783H204.055C204.055 68.5966 203.973 68.26 203.809 67.9684C203.65 67.6716 203.406 67.4384 203.077 67.2687C202.754 67.0991 202.343 67.0143 201.845 67.0143C201.373 67.0143 200.981 67.0858 200.668 67.229C200.355 67.3721 200.122 67.5656 199.968 67.8094C199.815 68.0533 199.738 68.3289 199.738 68.6364C199.738 68.8537 199.788 69.0525 199.889 69.2327C199.99 69.4076 200.143 69.572 200.35 69.7257C200.557 69.8741 200.816 70.0146 201.129 70.1471C201.442 70.2796 201.81 70.4068 202.234 70.5288C202.876 70.7196 203.435 70.9316 203.912 71.1649C204.389 71.3928 204.787 71.6526 205.105 71.9441C205.423 72.2356 205.661 72.567 205.82 72.938C205.98 73.3038 206.059 73.7199 206.059 74.1864C206.059 74.6741 205.961 75.114 205.765 75.5063C205.569 75.8933 205.288 76.2246 204.922 76.5002C204.562 76.7706 204.127 76.9799 203.618 77.1284C203.114 77.2715 202.552 77.343 201.932 77.343C201.376 77.343 200.827 77.2688 200.286 77.1204C199.751 76.972 199.263 76.7467 198.823 76.4445C198.383 76.1371 198.033 75.7554 197.774 75.2996C197.514 74.8384 197.384 74.3003 197.384 73.6854H199.38C199.38 74.0618 199.444 74.3825 199.571 74.6475C199.703 74.9126 199.886 75.1299 200.119 75.2996C200.353 75.4639 200.623 75.5858 200.93 75.6653C201.243 75.7448 201.577 75.7846 201.932 75.7846C202.399 75.7846 202.788 75.7183 203.101 75.5858C203.419 75.4533 203.658 75.2678 203.817 75.0292C203.976 74.7907 204.055 74.515 204.055 74.2023ZM223.055 75.6017V77.184H216.909V75.6017H223.055ZM217.474 65.6069V77.184H215.478V65.6069H217.474ZM222.252 70.4413V71.9998H216.909V70.4413H222.252ZM223.016 65.6069V67.1972H216.909V65.6069H223.016Z" fill="#151F6D"/>
</svg>
