<svg width="12" height="22" viewBox="0 0 12 22" fill="none" xmlns="http://www.w3.org/2000/svg">
<path d="M5.92387 21.1696C5.59332 21.1696 5.31604 21.0576 5.09204 20.8336C4.86804 20.6096 4.75643 20.3327 4.7572 20.0029V18.6612C3.8822 18.4668 3.11415 18.1265 2.45304 17.6404C1.79193 17.1543 1.25721 16.4737 0.848872 15.5987C0.712761 15.3265 0.708094 15.0395 0.834872 14.7377C0.961649 14.4359 1.18993 14.2174 1.5197 14.0821C1.79193 13.9654 2.07387 13.9704 2.36554 14.0972C2.65721 14.224 2.88082 14.4328 3.03637 14.7237C3.36693 15.3071 3.78498 15.7492 4.29054 16.0502C4.79609 16.3512 5.41832 16.5021 6.15721 16.5029C6.95443 16.5029 7.62993 16.3228 8.1837 15.9627C8.73748 15.6026 9.01476 15.0438 9.01554 14.2862C9.01554 13.6057 8.80165 13.0663 8.37387 12.6681C7.94609 12.2698 6.95443 11.8176 5.39887 11.3112C3.72665 10.7862 2.57943 10.1589 1.9572 9.42939C1.33498 8.69984 1.02387 7.81045 1.02387 6.76123C1.02387 5.49734 1.4322 4.51539 2.24887 3.81539C3.06554 3.11539 3.90165 2.71678 4.7572 2.61956V1.33623C4.7572 1.00567 4.8692 0.728393 5.0932 0.504393C5.3172 0.280393 5.59371 0.168782 5.92271 0.16956C6.25326 0.16956 6.53054 0.28156 6.75454 0.50556C6.97854 0.72956 7.09015 1.00645 7.08937 1.33623V2.61956C7.82826 2.73623 8.46993 2.97462 9.01437 3.33473C9.55882 3.69484 10.006 4.137 10.356 4.66123C10.531 4.914 10.5653 5.19595 10.4587 5.50706C10.3521 5.81817 10.1332 6.04178 9.80187 6.17789C9.52965 6.29456 9.2477 6.29961 8.95604 6.19306C8.66437 6.0865 8.39215 5.89673 8.13937 5.62373C7.88659 5.3515 7.58987 5.14267 7.24921 4.99723C6.90854 4.85178 6.48582 4.77867 5.98104 4.77789C5.12548 4.77789 4.47409 4.96767 4.02687 5.34723C3.57965 5.72678 3.35643 6.19811 3.3572 6.76123C3.3572 7.40289 3.64887 7.90845 4.2322 8.27789C4.81554 8.64734 5.82665 9.03623 7.26554 9.44456C8.6072 9.83345 9.62337 10.451 10.314 11.2972C11.0047 12.1434 11.3496 13.1203 11.3489 14.2279C11.3489 15.6084 10.9405 16.6584 10.1239 17.3779C9.3072 18.0973 8.29609 18.5446 7.09054 18.7196V20.0029C7.09054 20.3334 6.97854 20.6107 6.75454 20.8347C6.53054 21.0587 6.25365 21.1703 5.92387 21.1696Z" fill="#545454"/>
</svg>
