<svg width="22" height="20" viewBox="0 0 22 20" fill="none" xmlns="http://www.w3.org/2000/svg">
<path d="M4.35938 17.1667V17.7792C4.35938 18.2653 4.1941 18.6736 3.86354 19.0042C3.53299 19.3347 3.11493 19.5 2.60938 19.5C2.12327 19.5 1.70988 19.3297 1.36921 18.989C1.02854 18.6483 0.8586 18.2353 0.859378 17.75V9.00001L3.30938 2.00001C3.42604 1.65001 3.63488 1.36807 3.93588 1.15418C4.23688 0.940288 4.57249 0.833344 4.94271 0.833344H17.776C18.1455 0.833344 18.4811 0.940288 18.7829 1.15418C19.0847 1.36807 19.2935 1.65001 19.4094 2.00001L21.8594 9.00001V17.7792C21.8594 18.2653 21.6941 18.6736 21.3635 19.0042C21.033 19.3347 20.6149 19.5 20.1094 19.5C19.6233 19.5 19.2103 19.3297 18.8704 18.989C18.5305 18.6483 18.3602 18.2353 18.3594 17.75V17.1667H4.35938ZM4.12604 6.66668H18.5927L17.3677 3.16668H5.35104L4.12604 6.66668ZM6.10938 13.6667C6.59549 13.6667 7.00888 13.4963 7.34954 13.1557C7.69021 12.815 7.86016 12.402 7.85938 11.9167C7.85938 11.4306 7.68904 11.0172 7.34838 10.6765C7.00771 10.3358 6.59471 10.1659 6.10938 10.1667C5.62327 10.1667 5.20988 10.337 4.86921 10.6777C4.52854 11.0183 4.3586 11.4313 4.35938 11.9167C4.35938 12.4028 4.52971 12.8162 4.87038 13.1568C5.21104 13.4975 5.62404 13.6675 6.10938 13.6667ZM16.6094 13.6667C17.0955 13.6667 17.5089 13.4963 17.8495 13.1557C18.1902 12.815 18.3602 12.402 18.3594 11.9167C18.3594 11.4306 18.189 11.0172 17.8484 10.6765C17.5077 10.3358 17.0947 10.1659 16.6094 10.1667C16.1233 10.1667 15.7099 10.337 15.3692 10.6777C15.0285 11.0183 14.8586 11.4313 14.8594 11.9167C14.8594 12.4028 15.0297 12.8162 15.3704 13.1568C15.711 13.4975 16.124 13.6675 16.6094 13.6667Z" fill="#545454"/>
</svg>
