<svg width="22" height="21" viewBox="0 0 22 21" fill="none" xmlns="http://www.w3.org/2000/svg">
<path d="M0.99103 18.3576L10.1862 1.55444C10.2898 1.36482 10.4425 1.20658 10.6283 1.09634C10.8141 0.986093 11.0262 0.927917 11.2422 0.927917C11.4583 0.927917 11.6704 0.986093 11.8562 1.09634C12.042 1.20658 12.1947 1.36482 12.2982 1.55444L21.4934 18.3576C21.5936 18.5406 21.6442 18.7466 21.6405 18.9551C21.6368 19.1637 21.5788 19.3676 21.4722 19.5469C21.3655 19.7262 21.2141 19.8746 21.0326 19.9775C20.8512 20.0804 20.646 20.1342 20.4374 20.1336H2.04703C1.83844 20.1342 1.63331 20.0804 1.45186 19.9775C1.27041 19.8746 1.11891 19.7262 1.01231 19.5469C0.905703 19.3676 0.847673 19.1637 0.843942 18.9551C0.840211 18.7466 0.890907 18.5406 0.99103 18.3576ZM12.5222 12.1304L13.167 8.26164C13.1861 8.14709 13.18 8.02976 13.1491 7.91781C13.1182 7.80586 13.0634 7.70197 12.9883 7.61336C12.9132 7.52475 12.8198 7.45354 12.7144 7.40469C12.6091 7.35583 12.4944 7.3305 12.3782 7.33044H10.1062C9.9901 7.3305 9.87538 7.35583 9.77003 7.40469C9.66468 7.45354 9.57123 7.52475 9.49617 7.61336C9.42111 7.70197 9.36624 7.80586 9.33537 7.91781C9.30451 8.02976 9.29839 8.14709 9.31743 8.26164L9.96223 12.1304H12.5222ZM13.0022 15.1704C13.0022 14.7037 12.8168 14.256 12.4867 13.9259C12.1567 13.5959 11.709 13.4104 11.2422 13.4104C10.7754 13.4104 10.3278 13.5959 9.99772 13.9259C9.66766 14.256 9.48223 14.7037 9.48223 15.1704C9.48223 15.6372 9.66766 16.0849 9.99772 16.415C10.3278 16.745 10.7754 16.9304 11.2422 16.9304C11.709 16.9304 12.1567 16.745 12.4867 16.415C12.8168 16.0849 13.0022 15.6372 13.0022 15.1704Z" fill="#151F6D"/>
</svg>
