<svg width="21" height="21" viewBox="0 0 21 21" fill="none" xmlns="http://www.w3.org/2000/svg">
<g clip-path="url(#clip0_185_32963)">
<path d="M13.5826 13.8333L10.2492 10.5M10.2492 10.5L6.9159 13.8333M10.2492 10.5V18M17.2409 15.825C18.0537 15.3819 18.6958 14.6807 19.0658 13.8322C19.4358 12.9836 19.5127 12.036 19.2844 11.1389C19.0561 10.2418 18.5355 9.44626 17.8048 8.87787C17.0741 8.30948 16.175 8.00061 15.2492 8H14.1992C13.947 7.02436 13.4769 6.11861 12.8242 5.35082C12.1715 4.58304 11.3533 3.97321 10.431 3.56717C9.5087 3.16113 8.50636 2.96946 7.49933 3.00657C6.4923 3.04367 5.50679 3.30858 4.61688 3.78138C3.72697 4.25419 2.95583 4.92258 2.36142 5.73631C1.76701 6.55005 1.36481 7.48794 1.18505 8.47949C1.00529 9.47104 1.05266 10.4904 1.32358 11.461C1.5945 12.4317 2.08194 13.3282 2.74923 14.0833" stroke="#475467" stroke-width="1.66667" stroke-linecap="round" stroke-linejoin="round"/>
</g>
<defs>
<clipPath id="clip0_185_32963">
<rect width="20" height="20" fill="white" transform="translate(0.25 0.5)"/>
</clipPath>
</defs>
</svg>
