<svg width="32" height="33" viewBox="0 0 32 33" fill="none" xmlns="http://www.w3.org/2000/svg">
<rect y="0.724121" width="32" height="32" rx="16" fill="#151F6D"/>
<path d="M12.5047 18.3561L11.0967 14.5081C11.0274 14.3375 10.9554 14.1348 10.8807 13.9001C10.806 13.6655 10.7314 13.4121 10.6567 13.1401C10.5874 13.4121 10.5154 13.6681 10.4407 13.9081C10.366 14.1428 10.294 14.3481 10.2247 14.5241L8.82469 18.3561H12.5047ZM16.3047 22.7241H14.6407C14.454 22.7241 14.302 22.6788 14.1847 22.5881C14.0674 22.4921 13.9794 22.3748 13.9207 22.2361L13.0567 19.8761H8.26469L7.40069 22.2361C7.35802 22.3588 7.27535 22.4708 7.15269 22.5721C7.03002 22.6735 6.87802 22.7241 6.69669 22.7241H5.01669L9.56869 11.1561H11.7607L16.3047 22.7241ZM21.9801 21.0441C22.3801 21.0441 22.7161 20.9961 22.9881 20.9001C23.2601 20.8041 23.4761 20.6761 23.6361 20.5161C23.8014 20.3561 23.9187 20.1695 23.9881 19.9561C24.0627 19.7428 24.1001 19.5161 24.1001 19.2761C24.1001 19.0255 24.0601 18.8015 23.9801 18.6041C23.9001 18.4015 23.7747 18.2308 23.6041 18.0921C23.4334 17.9481 23.2121 17.8388 22.9401 17.7641C22.6734 17.6895 22.3507 17.6521 21.9721 17.6521H19.8041V21.0441H21.9801ZM19.8041 12.8201V16.1641H21.5161C22.2521 16.1641 22.8067 16.0308 23.1801 15.7641C23.5587 15.4975 23.7481 15.0735 23.7481 14.4921C23.7481 13.8895 23.5774 13.4601 23.2361 13.2041C22.8947 12.9481 22.3614 12.8201 21.6361 12.8201H19.8041ZM21.6361 11.1561C22.3934 11.1561 23.0414 11.2281 23.5801 11.3721C24.1187 11.5161 24.5587 11.7215 24.9001 11.9881C25.2467 12.2548 25.5001 12.5775 25.6601 12.9561C25.8201 13.3348 25.9001 13.7615 25.9001 14.2361C25.9001 14.5081 25.8601 14.7695 25.7801 15.0201C25.7001 15.2655 25.5747 15.4975 25.4041 15.7161C25.2387 15.9295 25.0254 16.1241 24.7641 16.3001C24.5081 16.4761 24.2014 16.6255 23.8441 16.7481C25.4334 17.1055 26.2281 17.9641 26.2281 19.3241C26.2281 19.8148 26.1347 20.2681 25.9481 20.6841C25.7614 21.1001 25.4894 21.4601 25.1321 21.7641C24.7747 22.0628 24.3347 22.2975 23.8121 22.4681C23.2894 22.6388 22.6921 22.7241 22.0201 22.7241H17.6521V11.1561H21.6361Z" fill="white"/>
</svg>
